Coordinates
version=1
nRows=29
nColumns=24
inDegrees=yes

Units are S.I. units (second, meters, Newtons, ...)
Angles are in degrees.

endheader
time	pelvis_tilt	pelvis_list	pelvis_rotation	pelvis_tx	pelvis_ty	pelvis_tz	hip_flexion_r	hip_adduction_r	hip_rotation_r	knee_angle_r	ankle_angle_r	subtalar_angle_r	mtp_angle_r	hip_flexion_l	hip_adduction_l	hip_rotation_l	knee_angle_l	ankle_angle_l	subtalar_angle_l	mtp_angle_l	lumbar_extension	lumbar_bending	lumbar_rotation
      4.91000000	     -5.72138443	     -7.52521914	    -13.26309498	      1.59133660	      0.67837497	     -0.28786760	    -12.72524878	     10.89435560	     12.73581046	    -19.21282945	     18.39103157	      9.05763374	      0.00000000	     25.64812224	     -6.80533378	      1.64754046	      1.86601016	      5.72477269	    -19.13272330	      0.00000000	    -14.14414672	      8.08893906	      9.60915794
      4.92000000	     -5.54947025	     -6.49958295	    -12.96180616	      1.60751613	      0.67861202	     -0.28879585	    -11.46425606	      9.39669942	     10.00710156	    -23.24663339	     16.56106716	     11.71726972	      0.00000000	     25.94487671	     -5.18855312	      3.84456496	     -0.62327262	      2.92097451	    -22.36772926	      0.00000000	    -13.57408287	      6.87779826	      9.06762525
      4.93000000	     -4.95993406	     -5.30015115	    -12.69813460	      1.62354114	      0.67954213	     -0.28970825	    -10.30863492	      7.53583832	      7.72684109	    -27.62472649	     14.06695643	     13.97401813	      0.00000000	     26.01545806	     -3.28679955	      4.13523384	     -3.52618805	      1.94641512	    -22.92193467	      0.00000000	    -13.56817760	      5.30825728	      8.62879102
      4.94000000	     -4.83817445	     -4.00147973	    -12.45205233	      1.63958399	      0.67990158	     -0.29060427	     -8.33812978	      5.67224165	      5.87006012	    -32.34510210	     10.84100325	     15.40661006	      0.00000000	     26.36936944	     -1.39057087	      5.31973722	     -6.05264871	     -1.22887475	    -25.63524996	      0.00000000	    -12.90258737	      3.77407452	      8.11404151
      4.95000000	     -4.18807964	     -2.71116037	    -12.15311491	      1.65526712	      0.68092962	     -0.29141082	     -6.72186995	      3.73588560	      4.56945341	    -37.12379266	      7.12460791	     16.33359658	      0.00000000	     26.27503580	      0.55278168	      4.86252902	     -8.72612913	     -1.88156660	    -25.56455194	      0.00000000	    -13.04693086	      2.06919231	      7.54790714
      4.96000000	     -4.14061238	     -1.36163262	    -12.03144783	      1.67049507	      0.68112091	     -0.29189511	     -4.11661242	      1.96571406	      3.94160177	    -42.17624081	      3.35755485	     16.76241317	      0.00000000	     26.71990694	      2.28855845	      4.21408208	    -11.19585114	     -2.05010411	    -25.26863625	      0.00000000	    -12.48916924	      0.39710938	      7.24800439
      4.97000000	     -3.89915933	     -0.00576472	    -11.85763578	      1.68539658	      0.68150113	     -0.29223106	     -1.56228111	      0.29069130	      3.73561393	    -47.12695368	     -0.25320143	     16.81919688	      0.00000000	     26.74013413	      3.99491943	      3.19353939	    -13.22362627	     -1.59156969	    -24.49905614	      0.00000000	    -12.25607068	     -1.35918569	      6.83001819
      4.98000000	     -3.92097418	      1.30642357	    -11.69867038	      1.69989662	      0.68152863	     -0.29222862	      1.42531228	     -1.04930551	      3.99768454	    -51.97739539	     -3.40394153	     16.40585507	      0.00000000	     26.80105206	      5.50456024	      2.08488297	    -14.87872193	      0.41893321	    -22.78153814	      0.00000000	    -11.76137492	     -3.05106097	      6.38386094
      4.99000000	     -3.71465542	      2.52691344	    -11.26281974	      1.71410510	      0.68190702	     -0.29241396	      4.15534038	     -2.20649336	      4.23818338	    -56.50351861	     -5.70821363	     16.09689053	      0.00000000	     26.33731218	      7.03896934	      0.97057099	    -16.03663366	      2.68168402	    -20.96979256	      0.00000000	    -11.68275012	     -4.64704880	      5.55219992
      5.00000000	     -3.34103647	      3.80499511	    -11.04133073	      1.72824902	      0.68274436	     -0.29242964	      6.76379578	     -3.31714458	      4.95108712	    -60.71752362	     -6.93842045	     16.13756510	      0.00000000	     25.09368252	      8.66944786	      0.57825698	    -16.17245701	      3.96715320	    -20.61616253	      0.00000000	    -11.78157952	     -6.32648986	      4.89196485
      5.01000000	     -3.10367515	      4.91273979	    -10.67601051	      1.74217048	      0.68369873	     -0.29252082	      9.44529904	     -4.09039744	      5.66331708	    -64.51947135	     -7.15844070	     16.38402109	      0.00000000	     23.69898943	     10.16039752	      0.42080560	    -15.90270289	      5.68109367	    -19.88598426	      0.00000000	    -11.78039710	     -7.73104490	      4.11133405
      5.02000000	     -2.75273250	      5.79435661	    -10.10071874	      1.75610875	      0.68519799	     -0.29289480	     11.80861097	     -4.62449261	      6.17901659	    -67.74207134	     -6.54084925	     16.83162735	      0.00000000	     21.76568014	     11.57803018	      0.99400699	    -15.08101248	      6.90263481	    -19.67036123	      0.00000000	    -11.98125524	     -8.80746249	      3.04122940
      5.03000000	     -2.45688378	      6.42181473	     -9.65840628	      1.77002481	      0.68702226	     -0.29306161	     14.08825171	     -4.77106959	      6.85226401	    -70.39987303	     -5.19594095	     17.39997399	      0.00000000	     19.55724009	     12.66176182	      1.77957756	    -13.84439132	      8.10778504	    -19.44375894	      0.00000000	    -12.07738385	     -9.55933302	      2.15715148
      5.04000000	     -2.15936864	      6.75417604	     -9.23781142	      1.78396115	      0.68917841	     -0.29330350	     16.19377353	     -4.60613305	      7.45425322	    -72.45454656	     -3.52481800	     18.06510275	      0.00000000	     17.11604026	     13.41711447	      2.70376948	    -12.35635069	      9.16592659	    -19.28786395	      0.00000000	    -12.16168195	     -9.90513007	      1.41083226
      5.05000000	     -1.87310875	      6.76747742	     -8.78743748	      1.79783081	      0.69157688	     -0.29358015	     18.10556914	     -4.11292490	      7.87546803	    -73.88470868	     -1.70211185	     18.39861891	      0.00000000	     14.53335877	     13.80481657	      3.97795190	    -10.76746000	      9.91800572	    -19.24445213	      0.00000000	    -12.26568350	     -9.85184998	      0.76999182
      5.06000000	     -1.32938748	      6.48364042	     -8.43144741	      1.81172659	      0.69443908	     -0.29384208	     19.54498943	     -3.38199595	      8.12825274	    -74.67889209	     -0.04459288	     17.98143451	      0.00000000	     11.38621575	     13.87896839	      6.25880798	     -8.79557720	      9.14446569	    -20.85670175	      0.00000000	    -12.70812697	     -9.47098698	      0.30245170
      5.07000000	     -1.24097291	      6.04707045	     -7.92212850	      1.82540980	      0.69666723	     -0.29432352	     21.35845379	     -2.50587172	      8.15668978	    -75.01739248	      1.57996277	     17.30924720	      0.00000000	      8.86157967	     13.65206762	      8.50785969	     -7.07726328	      8.25688503	    -22.45568635	      0.00000000	    -12.63311852	     -8.81436206	     -0.13985484
      5.08000000	     -1.28104080	      5.46436563	     -7.29098731	      1.83886792	      0.69862218	     -0.29486184	     23.17073412	     -1.55215952	      7.92567707	    -74.85783145	      2.97805264	     15.97073388	      0.00000000	      6.68212549	     13.17851028	     10.21697700	     -5.71204157	      8.35855377	    -22.88569655	      0.00000000	    -12.48402008	     -7.97871031	     -0.61121686
      5.09000000	     -1.33380721	      4.71380608	     -6.67332963	      1.85219290	      0.70041236	     -0.29540105	     24.84259079	     -0.48895394	      7.59233996	    -74.17234976	      4.10937071	     14.12286304	      0.00000000	      4.52598700	     12.45267084	     12.10133580	     -4.32299800	      7.95764421	    -23.89105798	      0.00000000	    -12.38909301	     -6.93799910	     -1.00382825
      5.10000000	     -1.51623656	      3.95987802	     -6.04733089	      1.86528077	      0.70174096	     -0.29592242	     26.56860066	      0.51151781	      7.16727974	    -73.05649271	      4.95165940	     11.68860934	      0.00000000	      2.66444696	     11.65856811	     13.64758734	     -3.08408349	      7.62935850	    -24.76766043	      0.00000000	    -12.20482246	     -5.90286743	     -1.38101881
      5.11000000	     -1.76973984	      3.30315503	     -5.44113636	      1.87804890	      0.70262124	     -0.29638138	     28.30594792	      1.34719099	      6.73006441	    -71.53745806	      5.49894078	      8.76090744	      0.00000000	      1.09390965	     10.94536186	     14.56851153	     -2.07173324	      7.73370996	    -25.03280367	      0.00000000	    -12.03250467	     -5.01413185	     -1.79800636
      5.12000000	     -2.01561248	      2.65354368	     -4.76031530	      1.89065384	      0.70315357	     -0.29694531	     29.87338174	      2.04705729	      6.22542310	    -69.55253734	      5.89526511	      5.74143408	      0.00000000	     -0.39442541	     10.22422234	     15.53195743	     -1.16041928	      8.01382326	    -25.27175460	      0.00000000	    -11.94559103	     -4.13145696	     -2.26328588
      5.13000000	     -2.29971409	      2.11394565	     -4.13018158	      1.90306290	      0.70322644	     -0.29750136	     31.36532344	      2.56187424	      5.77643910	    -67.15262842	      6.09048731	      2.62662020	      0.00000000	     -1.70813683	      9.62497625	     16.21391134	     -0.38067527	      8.45360468	    -25.41800983	      0.00000000	    -11.86195562	     -3.37977961	     -2.65169497
      5.14000000	     -2.50256385	      1.63836841	     -3.40417542	      1.91527433	      0.70309729	     -0.29802670	     32.56676926	      2.91773045	      5.34186283	    -64.26546825	      6.14319655	     -0.39287793	      0.00000000	     -2.99457060	      9.07284984	     17.02224130	      0.23327469	      8.94184772	    -25.47420114	      0.00000000	    -11.97044864	     -2.75047330	     -3.33535028
      5.15000000	     -2.82532598	      1.38291753	     -2.89245058	      1.92735585	      0.70239170	     -0.29832633	     33.78202875	      3.11103653	      5.18657799	    -61.00553708	      6.03658983	     -3.30082783	      0.00000000	     -4.01721737	      8.78631391	     17.38339808	      0.69691249	      9.41138720	    -25.53451596	      0.00000000	    -11.92579558	     -2.40431078	     -3.81080394
      5.16000000	     -3.08567870	      1.18676730	     -2.25811434	      1.93936564	      0.70149974	     -0.29877313	     34.68338163	      3.10373777	      4.96055951	    -57.24815367	      5.92871002	     -5.82999151	      0.00000000	     -5.00516174	      8.56907148	     17.91897002	      0.97708085	      9.99704248	    -25.57782183	      0.00000000	    -12.00163965	     -2.12082070	     -4.45091985
      5.17000000	     -3.17632818	      1.04399471	     -1.57505859	      1.95140261	      0.70054851	     -0.29929237	     35.14514635	      2.93351775	      4.67988275	    -53.00906904	      5.94950358	     -7.79911019	      0.00000000	     -6.13310765	      8.40111524	     18.59910772	      1.16713294	     10.71718100	    -25.59869732	      0.00000000	    -12.29109070	     -1.89928697	     -5.13466003
      5.18000000	     -3.44011567	      1.05781465	     -1.04915036	      1.96343395	      0.69916230	     -0.29956874	     35.57314818	      2.71952500	      4.70326190	    -48.34157337	      5.94015961	     -9.29197123	      0.00000000	     -6.96709763	      8.42639240	     18.91620826	      1.18792345	     11.15888851	    -25.65762101	      0.00000000	    -12.36841468	     -1.88770417	     -5.83287926
      5.19000000	     -3.60898787	      1.09857686	     -0.46295456	      1.97566373	      0.69769949	     -0.29993445	     35.60442574	      2.39346040	      4.63298988	    -43.21449722	      6.08090832	    -10.12501409	      0.00000000	     -7.90408734	      8.45096582	     19.46101343	      1.15341089	     11.72873972	    -25.67812893	      0.00000000	    -12.49543098	     -1.89017828	     -6.57131246
